<svg width="1938" height="2234" viewBox="0 0 1938 2234" fill="none" xmlns="http://www.w3.org/2000/svg">
<path d="M1936.33 1675.51C1935.54 1676.89 1934.4 1678.04 1933.02 1678.84C1931.64 1679.64 1930.08 1680.05 1928.49 1680.04H9.50137C6.01075 1680.04 3.15716 1678.14 1.66055 1675.51L501.117 1296.65L968.991 1117L1399.3 1258.05L1936.33 1675.51Z" fill="#7E51FD"/>
<path d="M968.996 0L1053.85 416.375L968.996 1117L272.69 1519.03L42.2172 1631.87C40.677 1629.24 353.555 1121.79 353.555 1121.79L663.614 572.471L961.303 7.58338C963.07 4.59454 968.996 0 968.996 0Z" fill="#8A61FF"/>
<path d="M968.996 0L272.69 1519.03L1.66491 1675.51C0.844961 1674.14 0.408232 1672.58 0.400555 1670.98C0.392877 1669.39 0.814542 1667.82 1.62129 1666.45L318.823 1117.1L644.59 552.836L961.155 4.53345C961.95 3.15707 963.093 2.01379 964.469 1.21815C965.845 0.422508 967.406 0.00243094 968.996 0Z" fill="#5F51FD"/>
<path d="M1936.33 1675.51L968.996 1117V0C972.032 0 975.069 1.54024 976.836 4.53345L1293.41 552.841L1619.17 1117.1L1936.37 1666.45C1937.17 1667.83 1937.58 1669.39 1937.57 1670.99C1937.57 1672.58 1937.14 1674.14 1936.33 1675.51Z" fill="#8773FF"/>
<path d="M1936.37 567.567L1456.63 1398.55L968.996 1117V553.971H1928.53C1935.51 553.971 1939.86 561.537 1936.37 567.567Z" fill="#FF6BB2"/>
<path d="M968.996 553.971V1117L481.412 1398.5L1.61691 567.567C-1.82572 561.541 2.47648 553.971 9.45773 553.971H968.996Z" fill="#C54BFF"/>
<path d="M1456.63 1398.55L976.836 2229.48C973.346 2235.51 964.645 2235.51 961.159 2229.48L481.412 1398.55V1398.5L968.996 1117.01L1456.63 1398.55Z" fill="#FF51B9"/>
<path d="M968.996 553.971L1018.03 900.869L968.996 1117L786.013 1296.65L480.413 1399.09L968.996 553.971Z" fill="#FF5454"/>
<path d="M1457.58 1399.09L1098.21 1276.18L968.996 1117V553.971L1457.58 1399.09Z" fill="#FF784D"/>
<path d="M1457.58 1399.09H480.413L968.996 1117L1457.58 1399.09Z" fill="#FF7853"/>
</svg>
